<svg width="152" height="67" viewBox="0 0 152 67" fill="none" xmlns="http://www.w3.org/2000/svg">
<path d="M67.6322 66.9968H34.1379C15.6388 66.9968 0.643555 51.9998 0.643555 33.4984C0.643555 14.9971 15.6388 0 34.1379 0C52.637 0 67.6322 14.9971 67.6322 33.4984V66.9968Z" fill="url(#paint0_linear_218_8272)"/>
<path d="M34.138 24.7402C29.3013 24.7402 25.3784 28.6605 25.3784 33.4977V37.8749V46.6324C27.7983 46.6324 29.7582 44.6723 29.7582 42.2552V37.878C29.7582 40.2951 31.7181 42.2552 34.138 42.2552C38.9747 42.2552 42.8976 38.335 42.8976 33.5009C42.8976 28.6668 38.9747 24.7434 34.138 24.7434V24.7402ZM34.138 37.8749H29.7582V33.4977C29.7582 31.0807 31.7181 29.1206 34.138 29.1206C36.5579 29.1206 38.5178 31.0807 38.5178 33.4977C38.5178 35.9148 36.5579 37.8749 34.138 37.8749ZM62.8461 33.4977C62.8461 31.0807 60.8862 29.1206 58.4663 29.1206V33.4977C58.4663 35.9148 56.5064 37.8749 54.0865 37.8749C51.6666 37.8749 49.7067 35.9148 49.7067 33.4977C49.7067 31.0807 51.6666 29.1206 54.0865 29.1206C56.5064 29.1206 58.4663 27.1604 58.4663 24.7434H54.0865C49.2498 24.7434 45.3269 28.6636 45.3269 33.5009C45.3269 38.3381 49.2498 42.2584 54.0865 42.2584C58.9232 42.2584 62.8461 38.3381 62.8461 33.5009V33.4977ZM14.1863 24.7402C9.34966 24.7402 5.42676 28.6605 5.42676 33.4977C5.42676 38.335 9.34966 42.2552 14.1863 42.2552C16.6062 42.2552 18.5661 40.2951 18.5661 37.878C18.5661 40.2951 20.526 42.2552 22.9459 42.2552V37.878V33.5009C22.9459 28.6636 19.023 24.7434 14.1863 24.7434V24.7402ZM18.5661 37.8749H14.1863C11.7664 37.8749 9.80654 35.9148 9.80654 33.4977C9.80654 31.0807 11.7664 29.1206 14.1863 29.1206C16.6062 29.1206 18.5661 31.0807 18.5661 33.4977V37.8749Z" fill="white"/>
<path d="M119.229 51.7859C119.229 50.1692 120.54 48.8583 122.156 48.8583H141.162C141.162 50.4749 139.852 51.7859 138.235 51.7859H119.229ZM141.162 42.7952H122.156C120.54 42.7952 119.229 44.1061 119.229 45.7227H138.235C139.852 45.7227 141.162 44.4118 141.162 42.7952ZM115.025 44.0525L119.134 33.877C116.708 32.8969 113.945 34.0692 112.962 36.4957L108.853 46.6713C109.93 47.1062 111.074 47.1156 112.098 46.7816C111.663 47.4969 111.414 48.3352 111.414 49.2333V66.9941C114.033 66.9941 116.157 64.8701 116.157 62.2513V44.4906C115.643 44.4906 115.151 44.5725 114.688 44.7238C114.817 44.5095 114.931 44.2857 115.025 44.0494V44.0525ZM141.143 62.2577V64.0697H141.162C141.162 65.6863 139.852 66.9972 138.235 66.9972H119.229C119.222 66.9972 119.216 66.9972 119.21 66.9972V57.8458C119.21 57.8458 119.222 57.8364 119.229 57.8332C119.235 56.2229 120.543 54.9183 122.156 54.9183H141.162C141.162 55.0285 141.156 55.1357 141.143 55.2428V62.2577ZM136.401 57.849H123.949V64.0728H136.401V57.849ZM133.001 36.7352V33.502C130.698 33.502 128.899 34.9011 128.045 36.7352H120.968C119.352 36.7352 118.041 38.0461 118.041 39.6628H139.417C141.033 39.6628 142.344 38.3518 142.344 36.7352H133.001ZM91.0122 53.1945H105.5C105.5 54.8143 104.189 56.1252 102.57 56.1252H91.0122V62.0717C91.0122 64.7945 88.8066 67.0004 86.0842 67.0004V56.1252H72.0059C72.0059 54.5054 73.3166 53.1945 74.9362 53.1945H86.6419C87.4643 51.622 89.1122 50.5474 91.0091 50.5474V53.1945H91.0122ZM87.5305 50.5474H83.5761V38.5661C83.5761 36.9463 84.8868 35.6354 86.5064 35.6354H87.1776C88.0693 34.3623 89.5471 33.502 91.2202 33.502V35.6354H93.9332V47.6167C93.9332 49.2364 92.6224 50.5474 91.0028 50.5474H87.5305ZM87.5305 38.5661V41.626H89.9787V38.5661H87.5305ZM87.5305 44.5567V47.6167H89.9787V44.5567H87.5305ZM72.009 50.5474C72.6739 50.5474 75.056 50.5474 75.4971 50.5474H79.4326C81.0522 50.5474 82.363 49.2364 82.363 47.6167H78.4968L81.0112 45.1019C82.4512 43.6618 82.4512 41.3235 81.0112 39.8834H78.4968L79.6279 38.752C81.0679 37.3119 81.0679 34.9736 79.6279 33.5335L73.0866 40.0756C72.3336 40.8287 71.9744 41.8277 72.009 42.8172H78.0808L73.0898 47.8089C72.3462 48.5526 71.987 49.5358 72.0122 50.5096C72.0122 50.5222 72.0122 50.5348 72.0122 50.5474H72.009ZM95.1494 50.5474C95.8143 50.5474 98.1964 50.5474 98.6375 50.5474H102.573C104.193 50.5474 105.503 49.2364 105.503 47.6167H101.637L104.152 45.1019C105.592 43.6618 105.592 41.3235 104.152 39.8834H101.637L102.768 38.752C104.208 37.3119 104.208 34.9736 102.768 33.5335L96.227 40.0756C95.474 40.8287 95.1147 41.8277 95.1494 42.8172H101.221L96.2302 47.8089C95.4866 48.5526 95.1274 49.5358 95.1526 50.5127C95.1526 50.5253 95.1526 50.5379 95.1526 50.5505L95.1494 50.5474ZM77.7721 59.0402L72.009 65.9226C73.9594 67.555 76.8614 67.2997 78.4968 65.3491L84.2598 58.4666C82.3094 56.8342 79.4074 57.0895 77.7721 59.0402ZM93.2399 58.4666L99.0156 65.3491C100.648 67.2997 103.553 67.555 105.503 65.9226L99.7277 59.0402C98.0955 57.0895 95.1904 56.8342 93.2399 58.4666Z" fill="url(#paint1_linear_218_8272)"/>
<path d="M67.6322 66.9968H34.1379C15.6388 66.9968 0.643555 51.9998 0.643555 33.4984C0.643555 14.9971 15.6388 0 34.1379 0C52.637 0 67.6322 14.9971 67.6322 33.4984V66.9968Z" fill="url(#paint2_linear_218_8272)"/>
<path d="M34.138 24.7402C29.3013 24.7402 25.3784 28.6605 25.3784 33.4977V37.8749V46.6324C27.7983 46.6324 29.7582 44.6723 29.7582 42.2552V37.878C29.7582 40.2951 31.7181 42.2552 34.138 42.2552C38.9747 42.2552 42.8976 38.335 42.8976 33.5009C42.8976 28.6668 38.9747 24.7434 34.138 24.7434V24.7402ZM34.138 37.8749H29.7582V33.4977C29.7582 31.0807 31.7181 29.1206 34.138 29.1206C36.5579 29.1206 38.5178 31.0807 38.5178 33.4977C38.5178 35.9148 36.5579 37.8749 34.138 37.8749ZM62.8461 33.4977C62.8461 31.0807 60.8862 29.1206 58.4663 29.1206V33.4977C58.4663 35.9148 56.5064 37.8749 54.0865 37.8749C51.6666 37.8749 49.7067 35.9148 49.7067 33.4977C49.7067 31.0807 51.6666 29.1206 54.0865 29.1206C56.5064 29.1206 58.4663 27.1604 58.4663 24.7434H54.0865C49.2498 24.7434 45.3269 28.6636 45.3269 33.5009C45.3269 38.3381 49.2498 42.2584 54.0865 42.2584C58.9232 42.2584 62.8461 38.3381 62.8461 33.5009V33.4977ZM14.1863 24.7402C9.34966 24.7402 5.42676 28.6605 5.42676 33.4977C5.42676 38.335 9.34966 42.2552 14.1863 42.2552C16.6062 42.2552 18.5661 40.2951 18.5661 37.878C18.5661 40.2951 20.526 42.2552 22.9459 42.2552V37.878V33.5009C22.9459 28.6636 19.023 24.7434 14.1863 24.7434V24.7402ZM18.5661 37.8749H14.1863C11.7664 37.8749 9.80654 35.9148 9.80654 33.4977C9.80654 31.0807 11.7664 29.1206 14.1863 29.1206C16.6062 29.1206 18.5661 31.0807 18.5661 33.4977V37.8749Z" fill="white"/>
<path d="M119.229 51.7859C119.229 50.1692 120.54 48.8583 122.156 48.8583H141.162C141.162 50.4749 139.852 51.7859 138.235 51.7859H119.229ZM141.162 42.7952H122.156C120.54 42.7952 119.229 44.1061 119.229 45.7227H138.235C139.852 45.7227 141.162 44.4118 141.162 42.7952ZM115.025 44.0525L119.134 33.877C116.708 32.8969 113.945 34.0692 112.962 36.4957L108.853 46.6713C109.93 47.1062 111.074 47.1156 112.098 46.7816C111.663 47.4969 111.414 48.3352 111.414 49.2333V66.9941C114.033 66.9941 116.157 64.8701 116.157 62.2513V44.4906C115.643 44.4906 115.151 44.5725 114.688 44.7238C114.817 44.5095 114.931 44.2857 115.025 44.0494V44.0525ZM141.143 62.2577V64.0697H141.162C141.162 65.6863 139.852 66.9972 138.235 66.9972H119.229C119.222 66.9972 119.216 66.9972 119.21 66.9972V57.8458C119.21 57.8458 119.222 57.8364 119.229 57.8332C119.235 56.2229 120.543 54.9183 122.156 54.9183H141.162C141.162 55.0285 141.156 55.1357 141.143 55.2428V62.2577ZM136.401 57.849H123.949V64.0728H136.401V57.849ZM133.001 36.7352V33.502C130.698 33.502 128.899 34.9011 128.045 36.7352H120.968C119.352 36.7352 118.041 38.0461 118.041 39.6628H139.417C141.033 39.6628 142.344 38.3518 142.344 36.7352H133.001ZM91.0122 53.1945H105.5C105.5 54.8143 104.189 56.1252 102.57 56.1252H91.0122V62.0717C91.0122 64.7945 88.8066 67.0004 86.0842 67.0004V56.1252H72.0059C72.0059 54.5054 73.3166 53.1945 74.9362 53.1945H86.6419C87.4643 51.622 89.1122 50.5474 91.0091 50.5474V53.1945H91.0122ZM87.5305 50.5474H83.5761V38.5661C83.5761 36.9463 84.8868 35.6354 86.5064 35.6354H87.1776C88.0693 34.3623 89.5471 33.502 91.2202 33.502V35.6354H93.9332V47.6167C93.9332 49.2364 92.6224 50.5474 91.0028 50.5474H87.5305ZM87.5305 38.5661V41.626H89.9787V38.5661H87.5305ZM87.5305 44.5567V47.6167H89.9787V44.5567H87.5305ZM72.009 50.5474C72.6739 50.5474 75.056 50.5474 75.4971 50.5474H79.4326C81.0522 50.5474 82.363 49.2364 82.363 47.6167H78.4968L81.0112 45.1019C82.4512 43.6618 82.4512 41.3235 81.0112 39.8834H78.4968L79.6279 38.752C81.0679 37.3119 81.0679 34.9736 79.6279 33.5335L73.0866 40.0756C72.3336 40.8287 71.9744 41.8277 72.009 42.8172H78.0808L73.0898 47.8089C72.3462 48.5526 71.987 49.5358 72.0122 50.5096C72.0122 50.5222 72.0122 50.5348 72.0122 50.5474H72.009ZM95.1494 50.5474C95.8143 50.5474 98.1964 50.5474 98.6375 50.5474H102.573C104.193 50.5474 105.503 49.2364 105.503 47.6167H101.637L104.152 45.1019C105.592 43.6618 105.592 41.3235 104.152 39.8834H101.637L102.768 38.752C104.208 37.3119 104.208 34.9736 102.768 33.5335L96.227 40.0756C95.474 40.8287 95.1147 41.8277 95.1494 42.8172H101.221L96.2302 47.8089C95.4866 48.5526 95.1274 49.5358 95.1526 50.5127C95.1526 50.5253 95.1526 50.5379 95.1526 50.5505L95.1494 50.5474ZM77.7721 59.0402L72.009 65.9226C73.9594 67.555 76.8614 67.2997 78.4968 65.3491L84.2598 58.4666C82.3094 56.8342 79.4074 57.0895 77.7721 59.0402ZM93.2399 58.4666L99.0156 65.3491C100.648 67.2997 103.553 67.555 105.503 65.9226L99.7277 59.0402C98.0955 57.0895 95.1904 56.8342 93.2399 58.4666Z" fill="url(#paint3_linear_218_8272)"/>
<path d="M141.833 28.4724C141.833 25.7182 144.064 23.4461 146.869 23.4492C149.664 23.4555 151.904 25.7308 151.882 28.5102C151.863 31.2645 149.626 33.4956 146.866 33.4987C144.08 33.5019 141.83 31.2424 141.833 28.4724ZM151.245 28.4756C151.245 26.0617 149.282 24.0921 146.869 24.0889C144.449 24.0858 142.473 26.0491 142.473 28.4661C142.473 30.8863 144.42 32.8464 146.831 32.8622C149.292 32.8779 151.252 30.88 151.248 28.4756H151.245ZM150.064 26.7455C149.881 26.7455 149.698 26.7455 149.512 26.7455C149.474 26.7455 149.459 26.7581 149.446 26.7896C149.345 27.0417 149.244 27.2938 149.14 27.5459C148.926 28.0753 148.712 28.6079 148.498 29.1373C148.466 29.213 148.435 29.2917 148.4 29.3737C148.394 29.3611 148.387 29.3548 148.384 29.3453C148.28 29.0869 148.176 28.8317 148.072 28.5732C147.83 27.9745 147.59 27.3758 147.351 26.777C147.341 26.7486 147.326 26.7392 147.297 26.7392C147.108 26.7392 146.919 26.7392 146.73 26.7392C146.717 26.7392 146.708 26.7392 146.692 26.7392C146.607 27.9367 146.519 29.131 146.434 30.3254C146.443 30.3254 146.443 30.3285 146.446 30.3285C146.651 30.3285 146.853 30.3285 147.058 30.3285C147.086 30.3285 147.086 30.3128 147.086 30.2939C147.105 30.0102 147.127 29.7266 147.149 29.443C147.177 29.0522 147.203 28.6615 147.231 28.2707C147.234 28.2077 147.24 28.1478 147.247 28.0848C147.259 28.0943 147.266 28.1037 147.269 28.1132C147.404 28.4409 147.537 28.7686 147.672 29.0964C147.836 29.4966 148 29.8968 148.164 30.297C148.173 30.3222 148.186 30.3317 148.214 30.3285C148.34 30.3285 148.463 30.3285 148.589 30.3285C148.614 30.3285 148.627 30.3222 148.636 30.297C148.671 30.2056 148.709 30.1174 148.747 30.0292C149.008 29.3926 149.27 28.7529 149.531 28.1163C149.538 28.1037 149.544 28.0943 149.55 28.0816C149.55 28.0816 149.556 28.0816 149.556 28.0848C149.61 28.8317 149.664 29.5785 149.717 30.3254H150.369C150.284 29.1279 150.196 27.9335 150.111 26.7329C150.092 26.7329 150.079 26.7329 150.064 26.7329V26.7455ZM145.17 30.2813C145.17 29.317 145.17 28.3527 145.17 27.3915C145.17 27.3505 145.183 27.3411 145.221 27.3411C145.602 27.3411 145.986 27.3411 146.368 27.3411C146.383 27.3411 146.402 27.3411 146.418 27.3411V26.7518H143.242C143.242 26.7707 143.242 26.7833 143.242 26.7991C143.242 26.9629 143.242 27.13 143.242 27.2938C143.242 27.3295 143.259 27.3474 143.292 27.3474C143.68 27.3474 144.064 27.3474 144.452 27.3474C144.468 27.3474 144.487 27.3474 144.505 27.3474V30.3443H145.167C145.167 30.3222 145.167 30.3065 145.167 30.2876L145.17 30.2813Z" fill="#EA5504"/>
<defs>
<linearGradient id="paint0_linear_218_8272" x1="10.4524" y1="9.81003" x2="67.6392" y2="66.9899" gradientUnits="userSpaceOnUse">
<stop stop-color="#F6AB00"/>
<stop offset="0.5" stop-color="#EA5504"/>
<stop offset="1" stop-color="#E4007F"/>
</linearGradient>
<linearGradient id="paint1_linear_218_8272" x1="131.149" y1="75.2978" x2="84.5031" y2="28.6578" gradientUnits="userSpaceOnUse">
<stop stop-color="#EA5504"/>
<stop offset="1" stop-color="#E4007F"/>
</linearGradient>
<linearGradient id="paint2_linear_218_8272" x1="10.4524" y1="9.81003" x2="67.6392" y2="66.9899" gradientUnits="userSpaceOnUse">
<stop stop-color="#F6AB00"/>
<stop offset="0.5" stop-color="#EA5504"/>
<stop offset="1" stop-color="#E4007F"/>
</linearGradient>
<linearGradient id="paint3_linear_218_8272" x1="131.149" y1="75.2978" x2="84.5031" y2="28.6578" gradientUnits="userSpaceOnUse">
<stop stop-color="#EA5504"/>
<stop offset="1" stop-color="#E4007F"/>
</linearGradient>
</defs>
</svg>
