<svg width="214" height="171" viewBox="0 0 214 171" fill="none" xmlns="http://www.w3.org/2000/svg">
<path fill-rule="evenodd" clip-rule="evenodd" d="M68.4 136.8H136.8V68.4C136.8 30.6224 106.178 0 68.4 0C30.6224 0 0 30.6224 0 68.4C0 106.178 30.6224 136.8 68.4 136.8ZM50.5118 68.4001C50.5118 58.523 58.5229 50.5183 68.4 50.5183V50.5247C78.2771 50.5247 86.2882 58.5358 86.2882 68.4065C86.2882 78.2773 78.2771 86.2819 68.4 86.2819C63.4582 86.2819 59.4559 82.2796 59.4559 77.3442V86.2819C59.4559 91.2173 55.4535 95.2196 50.5118 95.2196V77.3378V68.4001ZM59.4559 77.3378H68.4C73.3418 77.3378 77.3441 73.3355 77.3441 68.4001C77.3441 63.4648 73.3418 59.4624 68.4 59.4624C63.4582 59.4624 59.4559 63.4648 59.4559 68.4001V77.3378ZM118.082 59.4624C123.023 59.4624 127.026 63.4648 127.026 68.4001V68.4065C127.026 78.2837 119.015 86.2884 109.138 86.2884C99.2604 86.2884 91.2493 78.2837 91.2493 68.4065C91.2493 58.5294 99.2604 50.5247 109.138 50.5247H118.082C118.082 55.4601 114.079 59.4624 109.138 59.4624C104.196 59.4624 100.193 63.4648 100.193 68.4001C100.193 73.3355 104.196 77.3378 109.138 77.3378C114.079 77.3378 118.082 73.3355 118.082 68.4001V59.4624ZM9.76776 68.4001C9.76776 58.523 17.7789 50.5183 27.656 50.5183V50.5247C37.5331 50.5247 45.5442 58.5294 45.5442 68.4065V77.3442V86.2819C40.6024 86.2819 36.6001 82.2796 36.6001 77.3442C36.6001 82.2796 32.5978 86.2819 27.656 86.2819C17.7789 86.2819 9.76776 78.2773 9.76776 68.4001ZM27.656 77.3378H36.6001V68.4001C36.6001 63.4648 32.5978 59.4624 27.656 59.4624C22.7142 59.4624 18.7119 63.4648 18.7119 68.4001C18.7119 73.3355 22.7142 77.3378 27.656 77.3378Z" fill="white"/>
<path d="M150.82 131.22C150.717 131.322 150.415 131.455 150.248 131.455H145.854C145.616 131.455 145.481 131.188 145.584 131.054L151.501 124.09C151.604 123.957 151.771 123.855 151.938 123.855H156.538C156.705 123.855 156.879 124.09 156.776 124.192L150.82 131.226V131.22ZM155.118 117.66C154.848 117.927 154.476 118.061 154.039 118.061H146.837C146.567 118.061 146.329 117.826 146.329 117.558V115.485C146.329 115.218 146.464 115.014 146.669 114.817L150.73 110.734H146.74C146.4 110.734 146.2 110.499 146.2 110.232V108.559C146.2 108.26 146.406 107.891 146.573 107.688L150.736 102.968C150.942 102.733 151.379 102.6 151.649 102.6H155.131C155.337 102.6 155.433 102.937 155.337 103.032L150.839 108.12H154.9C155.202 108.12 155.44 108.285 155.44 108.591V109.996C155.44 110.397 155.337 110.734 155.067 111.001L150.672 115.453H153.178V113.513C153.178 113.31 153.281 113.145 153.48 113.145H155.17C155.407 113.145 155.542 113.31 155.542 113.513V116.56C155.542 117.031 155.407 117.399 155.138 117.667L155.118 117.66ZM175.858 122.685H163.272V131.557C163.272 131.792 163.137 132.028 162.931 132.028H159.243C159.005 132.028 158.838 131.76 158.838 131.557V122.685H146.625C146.419 122.685 146.188 122.519 146.188 122.348V120.408C146.188 120.204 146.393 120.071 146.592 120.071H158.838V118.697C158.838 118.493 159.005 118.328 159.179 118.328H162.899C163.066 118.328 163.272 118.493 163.272 118.697V120.071H175.819C176.057 120.071 176.295 120.236 176.295 120.44V122.214C176.295 122.513 176.089 122.685 175.858 122.685ZM165.238 117.228C164.936 117.527 164.563 117.73 163.985 117.73H158.132C157.695 117.73 157.354 117.597 157.052 117.393C156.68 117.126 156.442 116.655 156.442 116.089V106.314C156.442 105.843 156.647 105.411 156.982 105.105C157.322 104.737 157.83 104.469 158.337 104.469H158.948L159.558 102.86C159.629 102.727 159.828 102.625 159.995 102.625H163.175C163.342 102.625 163.477 102.829 163.413 102.962L162.835 104.469H163.818C164.357 104.469 164.865 104.705 165.205 105.105C165.546 105.443 165.745 105.945 165.745 106.479V115.924C165.745 116.458 165.54 116.897 165.238 117.228ZM162.192 107.115H159.995V109.793H162.192V107.115ZM162.192 112.407H159.995V115.084H162.192V112.407ZM176.263 131.461H171.868C171.701 131.461 171.393 131.328 171.296 131.226L165.34 124.192C165.238 124.09 165.405 123.855 165.578 123.855H170.178C170.345 123.855 170.519 123.957 170.615 124.09L176.533 131.054C176.635 131.188 176.5 131.455 176.263 131.455V131.461ZM175.35 117.667C175.081 117.934 174.708 118.067 174.271 118.067H167.069C166.799 118.067 166.561 117.832 166.561 117.565V115.657C166.561 115.358 166.728 114.989 166.902 114.817L170.962 110.734H166.972C166.632 110.734 166.433 110.499 166.433 110.232V108.559C166.433 108.26 166.638 107.891 166.805 107.688L170.969 102.968C171.174 102.733 171.611 102.6 171.881 102.6H175.363C175.569 102.6 175.665 102.937 175.569 103.032L171.071 108.12H175.132C175.434 108.12 175.672 108.285 175.672 108.591V109.996C175.672 110.365 175.569 110.734 175.299 111.001L170.904 115.453H173.41V113.513C173.41 113.31 173.513 113.145 173.712 113.145H175.402C175.64 113.145 175.774 113.31 175.774 113.513V116.56C175.774 117.031 175.64 117.399 175.37 117.667H175.35Z" fill="white"/>
<path d="M188.403 113.645H189.717C189.922 113.645 190.089 113.848 190.089 114.045V131.557C190.089 131.792 189.922 132.028 189.717 132.028H186.205C185.968 132.028 185.833 131.76 185.833 131.557V114.414H184.077C183.872 114.414 183.674 114.179 183.738 114.013L188.256 102.898C188.327 102.765 188.557 102.6 188.762 102.6H192.505C192.742 102.6 192.806 102.937 192.742 103.102L188.391 113.645H188.403ZM213.507 107.922H192.55C192.383 107.922 192.146 107.756 192.146 107.585V105.645C192.146 105.442 192.313 105.308 192.518 105.308H199.843L199.036 103.197C198.933 102.962 199.106 102.663 199.407 102.663H203.285C203.624 102.663 203.823 102.867 203.958 103.166L204.868 105.308H213.475C213.712 105.308 213.949 105.474 213.949 105.677V107.451C213.949 107.75 213.712 107.922 213.513 107.922H213.507ZM212.494 131.525C212.193 131.862 211.783 132.028 211.244 132.028H194.338C193.902 132.028 193.562 131.926 193.261 131.691C192.89 131.423 192.652 130.953 192.652 130.387V123.125C192.652 122.655 192.89 122.222 193.191 121.885C193.562 121.517 194.037 121.281 194.543 121.281H211.078C211.616 121.281 212.122 121.517 212.462 121.885C212.802 122.254 213 122.725 213 123.259V130.253C213 130.756 212.795 131.226 212.494 131.525ZM212.359 113.314H193.53C193.364 113.314 193.127 113.149 193.127 112.977V111.038C193.127 110.834 193.293 110.701 193.498 110.701H212.327C212.565 110.701 212.802 110.866 212.802 111.069V112.843C212.802 113.142 212.565 113.314 212.366 113.314H212.359ZM212.359 118.706H193.53C193.364 118.706 193.127 118.541 193.127 118.369V116.43C193.127 116.226 193.293 116.093 193.498 116.093H212.327C212.565 116.093 212.802 116.258 212.802 116.462V118.236C212.802 118.534 212.565 118.706 212.366 118.706H212.359ZM208.751 123.927H196.908V129.382H208.751V123.927Z" fill="white"/>
<path d="M151.07 170.395C150.872 170.592 150.635 170.694 150.264 170.694H145.801C145.603 170.694 145.469 170.459 145.603 170.293L150.334 165.451C150.501 165.285 150.769 165.183 151.07 165.183H155.501C155.737 165.183 155.872 165.483 155.699 165.648L151.064 170.395H151.07ZM175.513 145.707H169.303V146.911C169.303 147.179 169.169 147.344 168.9 147.344H165.443C165.174 147.344 165.007 147.109 165.007 146.911V145.707H157.389V146.911C157.389 147.179 157.191 147.344 156.954 147.344H156.218L151.115 151.422H155.315C155.552 151.422 155.782 151.658 155.782 151.887V153.289C155.782 153.524 155.648 153.792 155.347 153.989L150.616 157.264H152.997V155.996C152.997 155.799 153.132 155.665 153.33 155.665H155.379C155.577 155.665 155.712 155.799 155.712 155.996V158.099C155.712 158.634 155.545 159.035 155.244 159.271C154.873 159.539 154.406 159.602 153.868 159.602H146.819C146.621 159.602 146.416 159.335 146.416 159.169V157.468C146.416 157.137 146.685 156.831 146.883 156.665L150.814 153.76H146.819C146.621 153.76 146.448 153.461 146.448 153.295V151.989C146.448 151.721 146.551 151.352 146.781 151.186L151.512 147.408C151.749 147.211 151.883 147.109 152.248 147.109H153.087V145.707H146.506C146.307 145.707 146.102 145.573 146.102 145.376V143.707C146.102 143.509 146.301 143.375 146.506 143.375H153.087V142.006C153.087 141.808 153.253 141.572 153.42 141.572H157.011C157.178 141.572 157.383 141.808 157.383 142.006V143.375H165.001V142.006C165.001 141.808 165.168 141.572 165.334 141.572H168.926C169.092 141.572 169.297 141.808 169.297 142.006V143.375H175.475C175.712 143.375 175.91 143.541 175.91 143.745V145.35C175.91 145.586 175.712 145.72 175.507 145.72L175.513 145.707ZM175.577 164.017H163.253V170.535C163.253 170.771 163.087 171 162.882 171H159.22C158.983 171 158.849 170.733 158.849 170.535V164.017H146.563C146.365 164.017 146.16 163.852 146.16 163.686V162.017C146.16 161.819 146.358 161.686 146.563 161.686H158.849V160.583C158.849 160.386 159.015 160.15 159.182 160.15H162.876C163.042 160.15 163.247 160.386 163.247 160.583V161.686H175.571C175.808 161.686 175.974 161.851 175.974 162.055V163.559C175.974 163.858 175.776 164.024 175.571 164.024L175.577 164.017ZM165.206 158.838C164.873 159.239 164.335 159.475 163.529 159.475H158.759C157.888 159.475 157.312 159.239 156.947 158.806C156.614 158.436 156.48 157.901 156.48 157.239V150.32C156.48 149.651 156.749 149.218 157.152 148.95C157.62 148.651 158.26 148.58 158.9 148.651L159.233 147.313C159.265 147.147 159.502 147.045 159.636 147.045H163.164C163.33 147.045 163.465 147.243 163.433 147.415L163.1 148.651C163.804 148.619 164.444 148.721 164.911 148.982C165.379 149.281 165.686 149.753 165.686 150.517V157.334C165.686 157.933 165.552 158.468 165.219 158.838H165.206ZM162.12 150.989H160.04V152.925H162.12V150.989ZM162.12 155.232H160.04V157.137H162.12V155.232ZM176.32 170.701H171.89C171.518 170.701 171.32 170.669 171.051 170.401L166.416 165.655C166.249 165.489 166.384 165.19 166.614 165.19H171.045C171.416 165.19 171.646 165.324 171.851 165.521L176.518 170.299C176.653 170.465 176.486 170.701 176.32 170.701ZM175.244 159.277C174.873 159.545 174.406 159.609 173.868 159.609H166.819C166.621 159.609 166.416 159.341 166.416 159.175V157.302C166.416 156.971 166.685 156.665 166.883 156.5L170.776 153.76H166.883C166.685 153.76 166.512 153.461 166.512 153.295V151.658C166.512 151.39 166.614 151.021 166.845 150.855L171.109 147.415C171.345 147.217 171.48 147.115 171.845 147.115H175.539C175.776 147.115 175.84 147.351 175.705 147.485L170.571 151.428H175.302C175.539 151.428 175.673 151.626 175.673 151.83V153.231C175.673 153.467 175.539 153.735 175.238 153.932L170.641 157.271H173.196V156.003C173.196 155.805 173.33 155.671 173.529 155.671H175.372C175.571 155.671 175.705 155.805 175.705 156.003V158.105C175.705 158.64 175.539 159.042 175.238 159.277H175.244Z" fill="white"/>
<path d="M188.971 170.369C188.771 170.567 188.532 170.637 188.326 170.637H183.997C183.797 170.637 183.623 170.369 183.797 170.235L189.99 164.384C190.126 164.282 190.365 164.187 190.5 164.187H194.9C195.068 164.187 195.274 164.422 195.139 164.556L188.984 170.369H188.971ZM213.125 149.342H206.932L206.016 151.847H212.274C212.512 151.847 212.745 152.013 212.745 152.217V153.988C212.745 154.288 212.545 154.454 212.306 154.454H201.042V156.194H211.629C211.867 156.194 212.1 156.36 212.1 156.563V158.335C212.1 158.635 211.9 158.801 211.661 158.801H201.035V160.808H213.048C213.287 160.808 213.519 160.974 213.519 161.178V162.95C213.519 163.25 213.319 163.415 213.08 163.415H201.035V170.535C201.035 170.771 200.868 171 200.661 171H196.971C196.732 171 196.597 170.732 196.597 170.535V163.415H184.52C184.32 163.415 184.081 163.25 184.081 163.084V161.146C184.081 160.949 184.281 160.815 184.487 160.815H196.597V158.807H186.145C185.945 158.807 185.707 158.641 185.707 158.476V156.538C185.707 156.34 185.907 156.207 186.113 156.207H196.603V154.466H185.436C185.236 154.466 184.997 154.301 184.997 154.135V152.197C184.997 152 185.197 151.866 185.404 151.866H191.661L190.745 149.361H184.552C184.352 149.361 184.113 149.195 184.113 149.03V147.092C184.113 146.894 184.313 146.761 184.52 146.761H187.868L185.971 142.681C185.939 142.611 186.107 142.312 186.274 142.312H189.726C189.861 142.312 190.165 142.375 190.236 142.509L192.229 146.754H193.481V142.006C193.481 141.808 193.648 141.572 193.816 141.572H197.435C197.603 141.572 197.81 141.808 197.81 142.006V146.754H200.01V142.006C200.01 141.808 200.177 141.572 200.345 141.572H203.964C204.132 141.572 204.338 141.808 204.338 142.006V146.754H205.622L207.616 142.509C207.68 142.375 207.99 142.312 208.125 142.312H211.577C211.745 142.312 211.951 142.509 211.88 142.681L209.983 146.761H213.061C213.3 146.761 213.532 146.926 213.532 147.13V148.902C213.532 149.202 213.332 149.367 213.093 149.367L213.125 149.342ZM195.126 149.342L196.074 151.847H201.622L202.571 149.342H195.126ZM213.667 170.631H209.338C209.1 170.631 208.932 170.599 208.796 170.465L202.539 164.55C202.403 164.416 202.603 164.18 202.777 164.18H207.177C207.313 164.18 207.551 164.282 207.687 164.378L213.88 170.229C214.048 170.363 213.88 170.631 213.68 170.631H213.667Z" fill="white"/>
</svg>
