<svg width="16" height="16" viewBox="0 0 16 16" fill="none" xmlns="http://www.w3.org/2000/svg">
<path d="M13.6743 1.33017H2.31563C2.18794 1.32841 2.06116 1.35166 1.94252 1.39861C1.82388 1.44555 1.71571 1.51527 1.62418 1.60377C1.53265 1.69228 1.45956 1.79784 1.40907 1.91442C1.35859 2.03101 1.33171 2.15634 1.32996 2.28325V13.7069C1.33171 13.8338 1.35859 13.9591 1.40907 14.0757C1.45956 14.1923 1.53265 14.2979 1.62418 14.3864C1.71571 14.4749 1.82388 14.5446 1.94252 14.5915C2.06116 14.6385 2.18794 14.6617 2.31563 14.66H13.6743C13.802 14.6617 13.9287 14.6385 14.0474 14.5915C14.166 14.5446 14.2742 14.4749 14.3657 14.3864C14.4573 14.2979 14.5304 14.1923 14.5808 14.0757C14.6313 13.9591 14.6582 13.8338 14.66 13.7069V2.28325C14.6582 2.15634 14.6313 2.03101 14.5808 1.91442C14.5304 1.79784 14.4573 1.69228 14.3657 1.60377C14.2742 1.51527 14.166 1.44555 14.0474 1.39861C13.9287 1.35166 13.802 1.32841 13.6743 1.33017V1.33017ZM5.37321 12.4872H3.36164V6.48881H5.37321V12.4872ZM4.36743 5.64903C4.09001 5.64903 3.82395 5.53949 3.62778 5.3445C3.43161 5.14952 3.32141 4.88506 3.32141 4.60931C3.32141 4.33355 3.43161 4.06909 3.62778 3.87411C3.82395 3.67912 4.09001 3.56958 4.36743 3.56958C4.51474 3.55297 4.66392 3.56748 4.80519 3.61216C4.94647 3.65683 5.07666 3.73066 5.18725 3.82882C5.29783 3.92697 5.3863 4.04724 5.44688 4.18174C5.50746 4.31624 5.53877 4.46194 5.53877 4.60931C5.53877 4.75667 5.50746 4.90237 5.44688 5.03687C5.3863 5.17137 5.29783 5.29164 5.18725 5.38979C5.07666 5.48795 4.94647 5.56178 4.80519 5.60645C4.66392 5.65113 4.51474 5.66564 4.36743 5.64903V5.64903ZM12.6283 12.4872H10.6167V9.26808C10.6167 8.46162 10.3284 7.93509 9.59751 7.93509C9.37131 7.93674 9.15106 8.00726 8.96643 8.13716C8.7818 8.26705 8.64167 8.45007 8.5649 8.66157C8.51243 8.81822 8.48969 8.9832 8.49785 9.14811V12.4806H6.48628C6.48628 12.4806 6.48628 7.02867 6.48628 6.48214H8.49785V7.32859C8.68059 7.01341 8.94637 6.75375 9.26656 6.57759C9.58676 6.40142 9.94924 6.31542 10.315 6.32885C11.656 6.32885 12.6283 7.18862 12.6283 9.0348V12.4872Z" fill="white"/>
</svg>
