<svg width="16" height="16" viewBox="0 0 16 16" fill="none" xmlns="http://www.w3.org/2000/svg">
<circle cx="8" cy="8" r="8" fill="#F07C03"/>
<g clip-path="url(#clip0_231_82)">
<path d="M9.58374 8.17684L12.5902 10.0775V6.19592L9.58374 8.17684Z" fill="white"/>
<path d="M3.67212 6.19592V10.0775L6.67861 8.17684L3.67212 6.19592Z" fill="white"/>
<path d="M12.0327 5.06555H4.22938C3.95125 5.06555 3.73052 5.2729 3.68872 5.53988L8.13102 8.46667L12.5733 5.53988C12.5315 5.2729 12.3108 5.06555 12.0327 5.06555Z" fill="white"/>
<path d="M9.07309 8.5135L8.2844 9.03297C8.23758 9.06363 8.18463 9.07868 8.13112 9.07868C8.07761 9.07868 8.02466 9.06363 7.97784 9.03297L7.18915 8.51294L3.68994 10.7263C3.73286 10.991 3.95247 11.1967 4.22948 11.1967H12.0328C12.3098 11.1967 12.5294 10.991 12.5723 10.7263L9.07309 8.5135Z" fill="white"/>
</g>
<defs>
<clipPath id="clip0_231_82">
<rect width="8.91803" height="8.91803" fill="white" transform="translate(3.67212 3.67212)"/>
</clipPath>
</defs>
</svg>
