<svg width="16" height="16" viewBox="0 0 16 16" fill="none" xmlns="http://www.w3.org/2000/svg">
<path d="M8 1C6.10037 1 5.8615 1.00875 5.11513 1.042C4.36875 1.077 3.86037 1.19425 3.415 1.3675C2.94761 1.54278 2.52437 1.81847 2.17513 2.17513C1.81847 2.52437 1.54278 2.94761 1.3675 3.415C1.19425 3.8595 1.07613 4.36875 1.042 5.1125C1.00875 5.86062 1 6.09863 1 8.00088C1 9.90138 1.00875 10.1394 1.042 10.8858C1.077 11.6313 1.19425 12.1396 1.3675 12.585C1.54687 13.0452 1.78575 13.4355 2.17513 13.8249C2.56363 14.2142 2.95388 14.454 3.41413 14.6325C3.86038 14.8057 4.36788 14.9239 5.11338 14.958C5.86063 14.9912 6.09862 15 8 15C9.90138 15 10.1385 14.9912 10.8858 14.958C11.6304 14.923 12.1405 14.8057 12.5859 14.6325C13.0529 14.4571 13.4759 14.1814 13.8249 13.8249C14.2142 13.4355 14.4531 13.0452 14.6325 12.585C14.8049 12.1396 14.923 11.6313 14.958 10.8858C14.9912 10.1394 15 9.90138 15 8C15 6.09862 14.9912 5.86063 14.958 5.11338C14.923 4.36875 14.8049 3.8595 14.6325 3.415C14.4572 2.94761 14.1815 2.52437 13.8249 2.17513C13.4756 1.81847 13.0524 1.54278 12.585 1.3675C12.1387 1.19425 11.6295 1.07613 10.8849 1.042C10.1376 1.00875 9.9005 1 7.99825 1H8ZM7.37262 2.26175H8.00088C9.86988 2.26175 10.0912 2.26788 10.8289 2.302C11.5114 2.33263 11.8824 2.44725 12.1291 2.54263C12.4555 2.6695 12.6891 2.82175 12.9341 3.06675C13.1791 3.31175 13.3305 3.5445 13.4574 3.87175C13.5536 4.11763 13.6674 4.48863 13.698 5.17113C13.7321 5.90875 13.7391 6.13013 13.7391 7.99825C13.7391 9.86638 13.7321 10.0886 13.698 10.8262C13.6674 11.5087 13.5528 11.8789 13.4574 12.1256C13.3444 12.4292 13.1653 12.7038 12.9332 12.9297C12.6882 13.1747 12.4555 13.3261 12.1283 13.453C11.8833 13.5493 11.5122 13.663 10.8289 13.6945C10.0912 13.7278 9.86988 13.7356 8.00088 13.7356C6.13188 13.7356 5.90963 13.7278 5.172 13.6945C4.4895 13.663 4.11937 13.5493 3.87262 13.453C3.56885 13.3403 3.2939 13.1616 3.06762 12.9297C2.83511 12.7037 2.65579 12.4287 2.54263 12.1247C2.44725 11.8789 2.33263 11.5079 2.302 10.8254C2.26875 10.0878 2.26175 9.86637 2.26175 7.9965C2.26175 6.12662 2.26875 5.907 2.302 5.16937C2.3335 4.48687 2.44725 4.11588 2.5435 3.86913C2.67038 3.54275 2.82262 3.30912 3.06762 3.06412C3.31262 2.81912 3.54537 2.66775 3.87262 2.54088C4.11937 2.44463 4.4895 2.33088 5.172 2.29938C5.81775 2.26963 6.068 2.26088 7.37262 2.26V2.26175ZM11.7371 3.42375C11.6268 3.42375 11.5176 3.44548 11.4157 3.48769C11.3138 3.52991 11.2212 3.59178 11.1432 3.66978C11.0652 3.74778 11.0033 3.84038 10.9611 3.9423C10.9189 4.04421 10.8971 4.15344 10.8971 4.26375C10.8971 4.37406 10.9189 4.48329 10.9611 4.5852C11.0033 4.68712 11.0652 4.77972 11.1432 4.85772C11.2212 4.93572 11.3138 4.99759 11.4157 5.03981C11.5176 5.08202 11.6268 5.10375 11.7371 5.10375C11.9599 5.10375 12.1736 5.01525 12.3311 4.85772C12.4886 4.70019 12.5771 4.48653 12.5771 4.26375C12.5771 4.04097 12.4886 3.82731 12.3311 3.66978C12.1736 3.51225 11.9599 3.42375 11.7371 3.42375ZM8.00088 4.4055C7.52406 4.39806 7.05053 4.48555 6.60786 4.66287C6.16518 4.8402 5.7622 5.10381 5.42238 5.43837C5.08256 5.77293 4.81269 6.17175 4.62849 6.6116C4.44428 7.05146 4.34941 7.52357 4.34941 8.00044C4.34941 8.47731 4.44428 8.94942 4.62849 9.38927C4.81269 9.82913 5.08256 10.2279 5.42238 10.5625C5.7622 10.8971 6.16518 11.1607 6.60786 11.338C7.05053 11.5153 7.52406 11.6028 8.00088 11.5954C8.9446 11.5807 9.84469 11.1954 10.5069 10.5228C11.169 9.85026 11.5402 8.94428 11.5402 8.00044C11.5402 7.0566 11.169 6.15061 10.5069 5.47803C9.84469 4.80545 8.9446 4.42022 8.00088 4.4055ZM8.00088 5.66638C8.30733 5.66638 8.61079 5.72674 8.89391 5.84401C9.17704 5.96129 9.4343 6.13318 9.651 6.34988C9.86769 6.56658 10.0396 6.82383 10.1569 7.10696C10.2741 7.39009 10.3345 7.69354 10.3345 8C10.3345 8.30646 10.2741 8.60991 10.1569 8.89304C10.0396 9.17617 9.86769 9.43342 9.651 9.65012C9.4343 9.86682 9.17704 10.0387 8.89391 10.156C8.61079 10.2733 8.30733 10.3336 8.00088 10.3336C7.38196 10.3336 6.78839 10.0878 6.35075 9.65012C5.91311 9.21248 5.66725 8.61892 5.66725 8C5.66725 7.38108 5.91311 6.78752 6.35075 6.34988C6.78839 5.91224 7.38196 5.66638 8.00088 5.66638Z" fill="white"/>
</svg>
