<svg width="16" height="16" viewBox="0 0 16 16" fill="none" xmlns="http://www.w3.org/2000/svg">
<path d="M1.51367 11.329C1.51367 10.1693 1.51367 9.00906 1.51367 7.84936C1.51367 7.60412 1.5151 7.6099 1.76184 7.594C2.22151 7.56461 2.61211 7.37911 2.91792 7.03029C3.01747 6.91658 3.07701 6.91224 3.1799 7.02836C3.52858 7.42344 3.97253 7.60701 4.49507 7.59689C4.70895 7.59255 4.92473 7.60797 5.13575 7.58099C5.56445 7.52606 5.92504 7.32515 6.20275 6.98692C6.28468 6.88719 6.3366 6.88912 6.42424 6.98307C6.82056 7.41091 7.31452 7.59207 7.89184 7.60123C8.44201 7.6099 8.95884 7.53666 9.39612 7.16664C9.47329 7.10111 9.54807 7.03125 9.61571 6.95609C9.68145 6.88285 9.7286 6.89201 9.78719 6.96283C10.184 7.44175 10.6989 7.62483 11.3067 7.59978C11.6039 7.58774 11.9002 7.59978 12.1837 7.48511C12.4428 7.38056 12.6681 7.22879 12.8481 7.01342C12.9263 6.92043 12.9829 6.90261 13.072 7.00523C13.4074 7.39164 13.8332 7.59063 14.3429 7.59496C14.4601 7.59593 14.5025 7.65182 14.4991 7.76119C14.4977 7.8031 14.4996 7.8455 14.4996 7.88742C14.4996 10.1712 14.4996 12.4549 14.4996 14.7387C14.4996 14.7869 14.501 14.8351 14.4977 14.8828C14.4782 15.1796 14.3243 15.3308 14.028 15.3318C13.3092 15.3347 12.59 15.3328 11.8712 15.3328C10.4036 15.3328 8.93598 15.3328 7.46838 15.3328C7.22402 15.3328 7.21925 15.328 7.21878 15.0813C7.21878 13.2841 7.21878 11.4875 7.21878 9.69034C7.21878 9.28177 7.10684 9.16951 6.69862 9.16951C5.79548 9.16902 4.89234 9.16902 3.9892 9.16951C3.57908 9.16951 3.4557 9.29333 3.4557 9.70624C3.45523 11.4913 3.4557 13.2759 3.4557 15.061C3.4557 15.2419 3.36901 15.3326 3.19562 15.3333C2.80931 15.3333 2.423 15.3342 2.03717 15.3333C1.66753 15.3323 1.51605 15.1834 1.51558 14.809C1.51367 13.6493 1.51462 12.4892 1.51462 11.3294L1.51367 11.329ZM9.16033 11.0678C9.16033 11.5487 9.15843 12.029 9.16081 12.5099C9.16271 12.8471 9.29228 12.9753 9.62714 12.9758C10.4469 12.9767 11.2662 12.9767 12.086 12.9758C12.4294 12.9758 12.5561 12.8476 12.5571 12.4959C12.5585 11.5525 12.559 10.6096 12.5571 9.66625C12.5566 9.31357 12.4171 9.17143 12.0712 9.17047C11.2634 9.16854 10.4555 9.16854 9.6481 9.17047C9.29657 9.17143 9.16271 9.3073 9.16081 9.66239C9.15843 10.1312 9.16033 10.5995 9.16033 11.0683V11.0678Z" fill="white"/>
<path d="M7.94239 6.86096C7.55179 6.90047 7.1731 6.77665 6.89016 6.41144C6.68914 6.15174 6.61531 5.85495 6.65056 5.53166C6.81442 4.02312 6.98114 2.51507 7.1469 1.00701C7.14738 1.00123 7.14833 0.994969 7.14881 0.989187C7.17517 0.777834 7.29235 0.672158 7.50035 0.672158C7.88046 0.672158 8.26058 0.675531 8.6407 0.670231C8.77122 0.668304 8.82933 0.708776 8.8441 0.850427C8.94413 1.80488 9.05321 2.75838 9.15848 3.71187C9.22183 4.28426 9.25375 4.86195 9.3533 5.42759C9.47953 6.14596 8.95508 6.92408 8.12006 6.86144C8.07862 6.85855 8.03718 6.86144 7.94239 6.86144V6.86096Z" fill="white"/>
<path d="M4.61382 6.86045C4.36136 6.88165 4.06746 6.85852 3.82405 6.64653C3.48585 6.35215 3.39821 5.98308 3.51586 5.55476C3.82501 4.43263 4.13272 3.31002 4.44186 2.18741C4.56619 1.73596 4.6948 1.28595 4.81341 0.833536C4.84532 0.712121 4.90439 0.668277 5.02538 0.669722C5.44122 0.67454 5.85706 0.675504 6.27291 0.669722C6.41819 0.667795 6.46154 0.728503 6.4463 0.865336C6.36865 1.55095 6.29339 2.23704 6.21765 2.92265C6.1281 3.73353 6.03855 4.54489 5.949 5.35577C5.92328 5.58848 5.90565 5.82216 5.8685 6.05294C5.79419 6.51644 5.39787 6.85322 4.93249 6.85997C4.84342 6.86141 4.75434 6.85997 4.61382 6.85997V6.86045Z" fill="white"/>
<path d="M10.3731 0.671567C10.5694 0.671567 10.7656 0.679758 10.9614 0.669158C11.1067 0.661449 11.1705 0.716857 11.2091 0.85899C11.4949 1.91945 11.7888 2.97749 12.0799 4.03602C12.2232 4.55685 12.3723 5.07576 12.5071 5.599C12.6524 6.16368 12.369 6.69366 11.835 6.82423C11.5116 6.90325 11.171 6.89843 10.8457 6.82423C10.4527 6.7351 10.1807 6.39254 10.1369 5.99071C9.95682 4.35064 9.78343 2.70961 9.59385 1.07098C9.53716 0.582433 9.58003 0.680721 9.94538 0.672049C10.0878 0.668676 10.2307 0.671567 10.3731 0.671567Z" fill="white"/>
<path d="M1.47638 6.86053C1.05053 6.88606 0.686134 6.76176 0.460826 6.35511C0.30554 6.0747 0.292202 5.78417 0.42129 5.48979C1.05291 4.05208 1.68454 2.61437 2.31712 1.17714C2.46907 0.832168 2.73772 0.670762 3.10736 0.671726C3.36268 0.672208 3.618 0.670762 3.87331 0.671726C4.101 0.67269 4.10767 0.680399 4.0448 0.908775C3.769 1.91527 3.49129 2.92128 3.21501 3.92729C3.03115 4.59797 2.83585 5.26623 2.66913 5.94172C2.52909 6.51074 2.19279 6.91449 1.47638 6.85956V6.86053Z" fill="white"/>
<path d="M12.5513 0.671698C12.6284 0.671698 12.7061 0.676516 12.7828 0.670735C13.2682 0.633636 13.5692 0.85623 13.7621 1.30624C14.3475 2.67264 14.933 4.03952 15.5574 5.38762C15.9009 6.1296 15.3941 6.92217 14.5981 6.86146C14.439 6.84942 14.2766 6.88074 14.1194 6.83834C13.7193 6.73041 13.4892 6.45819 13.3815 6.06167C13.0876 4.97953 12.7899 3.89836 12.4932 2.8167C12.3169 2.17493 12.1392 1.53317 11.9639 0.89092C11.9077 0.685189 11.9177 0.674107 12.1235 0.671698C12.2659 0.670253 12.4084 0.671698 12.5513 0.671698Z" fill="white"/>
</svg>
