<svg width="16" height="16" viewBox="0 0 16 16" fill="none" xmlns="http://www.w3.org/2000/svg">
<path d="M13.9333 1.33331H2.06665C1.87215 1.33331 1.68563 1.41057 1.5481 1.5481C1.41057 1.68563 1.33331 1.87215 1.33331 2.06665V13.9333C1.33331 14.0296 1.35228 14.125 1.38913 14.2139C1.42599 14.3029 1.48001 14.3838 1.5481 14.4519C1.6162 14.52 1.69704 14.574 1.78601 14.6108C1.87498 14.6477 1.97034 14.6666 2.06665 14.6666H8.45331V9.49998H6.71998V7.49998H8.45331V5.99998C8.41741 5.64782 8.45898 5.29206 8.57512 4.95767C8.69126 4.62328 8.87916 4.31834 9.12562 4.06425C9.37209 3.81016 9.67116 3.61307 10.0019 3.48681C10.3326 3.36054 10.6869 3.30815 11.04 3.33331C11.5589 3.33012 12.0775 3.35683 12.5933 3.41331V5.21331H11.5333C10.6933 5.21331 10.5333 5.61331 10.5333 6.19331V7.47998H12.5333L12.2733 9.47998H10.5333V14.6666H13.9333C14.0296 14.6666 14.125 14.6477 14.2139 14.6108C14.3029 14.574 14.3838 14.52 14.4519 14.4519C14.52 14.3838 14.574 14.3029 14.6108 14.2139C14.6477 14.125 14.6666 14.0296 14.6666 13.9333V2.06665C14.6666 1.97034 14.6477 1.87498 14.6108 1.78601C14.574 1.69704 14.52 1.6162 14.4519 1.5481C14.3838 1.48001 14.3029 1.42599 14.2139 1.38913C14.125 1.35228 14.0296 1.33331 13.9333 1.33331V1.33331Z" fill="white"/>
</svg>
