<svg width="32" height="32" viewBox="0 0 32 32" fill="none" xmlns="http://www.w3.org/2000/svg">
<line x1="1.5" y1="7.75" x2="30.5" y2="7.75" stroke="#E9451C" stroke-width="0.5"/>
<line x1="1.5" y1="11.75" x2="30.5" y2="11.75" stroke="#E9451C" stroke-width="0.5"/>
<path d="M3.79744 25V18.466H4.32844L5.72344 22.408C5.90344 22.894 6.08344 23.389 6.26344 23.884H6.29944C6.47944 23.389 6.64144 22.894 6.81244 22.408L8.21644 18.466H8.74744V25H8.41444V20.482C8.41444 19.969 8.43244 19.303 8.45044 18.772H8.41444L7.91044 20.212L6.44344 24.271H6.09244L4.61644 20.212L4.10344 18.772H4.06744C4.09444 19.303 4.11244 19.969 4.11244 20.482V25H3.79744ZM11.3532 25V18.466H14.8632V18.763H11.6862V21.364H14.3502V21.661H11.6862V24.703H14.9622V25H11.3532ZM17.0369 25V18.466H17.3879L20.2679 23.227L21.0149 24.514H21.0599C21.0239 23.884 21.0059 23.281 21.0059 22.669V18.466H21.3299V25H20.9699L18.0989 20.239L17.3519 18.952H17.3159C17.3339 19.564 17.3519 20.122 17.3519 20.743V25H17.0369ZM26.0575 25.117C24.9955 25.117 23.9155 24.577 23.9155 22.552V18.466H24.2485V22.48C24.2485 24.271 25.1125 24.802 26.0575 24.802C27.0205 24.802 27.9025 24.271 27.9025 22.48V18.466H28.2265V22.552C28.2265 24.577 27.1195 25.117 26.0575 25.117Z" fill="#E9451C"/>
</svg>
