<svg width="32" height="32" viewBox="0 0 32 32" fill="none" xmlns="http://www.w3.org/2000/svg">
<line x1="1.40441" y1="15.769" x2="30.4044" y2="3.769" stroke="white" stroke-width="0.5"/>
<line x1="1.59559" y1="3.769" x2="30.5956" y2="15.769" stroke="white" stroke-width="0.5"/>
<path d="M4.71333 25.117C3.10233 25.117 2.01333 23.776 2.01333 21.715C2.01333 19.654 3.11133 18.349 4.76733 18.349C5.52333 18.349 6.09933 18.727 6.43233 19.123L6.22533 19.348C5.87433 18.943 5.37933 18.664 4.76733 18.664C3.27333 18.664 2.36433 19.843 2.36433 21.715C2.36433 23.587 3.27333 24.802 4.73133 24.802C5.41533 24.802 5.92833 24.523 6.42333 23.974L6.63033 24.19C6.13533 24.766 5.55933 25.117 4.71333 25.117ZM8.6476 25V18.466H8.9806V24.703H12.0406V25H8.6476ZM15.8951 25.117C14.3471 25.117 13.2401 23.776 13.2401 21.715C13.2401 19.654 14.3471 18.349 15.8951 18.349C17.4431 18.349 18.5501 19.654 18.5501 21.715C18.5501 23.776 17.4431 25.117 15.8951 25.117ZM15.8951 24.802C17.2721 24.802 18.1991 23.587 18.1991 21.715C18.1991 19.843 17.2721 18.664 15.8951 18.664C14.5181 18.664 13.5911 19.843 13.5911 21.715C13.5911 23.587 14.5181 24.802 15.8951 24.802ZM22.3919 25.117C21.4289 25.117 20.7089 24.703 20.2139 24.127L20.4389 23.893C20.9159 24.451 21.6089 24.802 22.3919 24.802C23.4359 24.802 24.1019 24.235 24.1019 23.416C24.1019 22.543 23.5529 22.273 22.8959 21.976L21.8969 21.526C21.3299 21.274 20.5649 20.887 20.5649 19.924C20.5649 18.979 21.3569 18.349 22.4189 18.349C23.2109 18.349 23.8229 18.709 24.2009 19.123L23.9939 19.348C23.6159 18.943 23.0849 18.664 22.4189 18.664C21.5099 18.664 20.9069 19.15 20.9069 19.888C20.9069 20.707 21.5909 21.004 22.0499 21.211L23.0489 21.661C23.7869 21.994 24.4349 22.381 24.4349 23.389C24.4349 24.388 23.6249 25.117 22.3919 25.117ZM26.481 25V18.466H29.991V18.763H26.814V21.364H29.478V21.661H26.814V24.703H30.09V25H26.481Z" fill="white"/>
</svg>
